<?xml version="1.0" encoding="utf-8"?>
<!-- Svg Vector Icons : http://www.onlinewebfonts.com/icon -->
<!DOCTYPE svg PUBLIC "-//W3C//DTD SVG 1.1//EN" "http://www.w3.org/Graphics/SVG/1.1/DTD/svg11.dtd">
<svg version="1.1" xmlns="http://www.w3.org/2000/svg" xmlns:xlink="http://www.w3.org/1999/xlink" x="0px" y="0px" viewBox="0 0 1000 1000" enable-background="new 0 0 1000 1000" xml:space="preserve">
<metadata> Svg Vector Icons : http://www.onlinewebfonts.com/icon </metadata>
<g><path d="M55.9,990h214.4c16.9,0,30.6-13.7,30.6-30.6V346.9c0-16.9-13.7-30.6-30.6-30.6H55.9c-16.9,0-30.6,13.7-30.6,30.6v612.5C25.3,976.3,39,990,55.9,990z M86.6,377.5h153.2v551.3H86.6V377.5z"/><path d="M392.5,990H607c16.9,0,30.6-13.7,30.6-30.6V529c0-16.9-13.7-30.6-30.6-30.6H392.5c-16.9,0-30.6,13.7-30.6,30.6v430.4C361.9,976.3,375.6,990,392.5,990z M423.1,559.6h153.2v369.2H423.1V559.6z"/><path d="M729.9,990h214.1c16.9,0,30.6-13.7,30.6-30.6V40.6c0-16.9-13.7-30.6-30.6-30.6H729.9c-16.9,0-30.6,13.7-30.6,30.6v918.8C699.3,976.3,713,990,729.9,990z M760.6,71.3h152.9v857.5l-152.9,0V71.3z"/></g>
</svg>