<?xml version="1.0" encoding="utf-8"?>
<!-- Svg Vector Icons : http://www.onlinewebfonts.com/icon -->
<!DOCTYPE svg PUBLIC "-//W3C//DTD SVG 1.1//EN" "http://www.w3.org/Graphics/SVG/1.1/DTD/svg11.dtd">
<svg version="1.1" xmlns="http://www.w3.org/2000/svg" xmlns:xlink="http://www.w3.org/1999/xlink" x="0px" y="0px" viewBox="0 0 1000 1000" enable-background="new 0 0 1000 1000" xml:space="preserve">
<metadata> Svg Vector Icons : http://www.onlinewebfonts.com/icon </metadata>
<g><path d="M399.3,799.6c-77-41.1-107-115.6-95.7-165.4c11.4-49.8,13.9-52.2,29.6-76.8c15.7-24.6,46.7-16.3,59.4,11.8c10,22.2-33.5,54.7-9.1,110.2c16.3,35.6,30.6,49.7,98,70.6c18.5,6.2,38.4,22.2,30.9,51.6C505.4,826.4,460.5,832.3,399.3,799.6L399.3,799.6z"/><path d="M852.4,609.4c0.7,8.9,1.4,17.8,1.4,26.8C853.8,831.6,695.4,990,500,990c-195.4,0-353.8-158.4-353.8-353.8c0-9.1,0.7-17.9,1.4-26.8l4.6-36c13.5-75,103.5-193,103.5-193l58.1,35.4l-48.9,83.7c-25.2,41.4-40,89.8-40,141.8c0,151.2,122.5,273.7,273.7,273.7c151.1,0,273.6-122.5,273.6-273.7c0-61.6-20.6-118.3-55-164.1L527.6,167.2c-7.8-13-11.7-36.3-36.2-36.3c-19.9,0-31,29.8-34.3,35.7L313.8,415.7l-58.1-35.4L414.9,83.9c0,0,27.4-73.9,75.8-73.9c57.3,0,82.5,73.9,82.5,73.9s269.9,421.7,278.9,519.5L852.4,609.4L852.4,609.4z"/><path d="M852.4,609.4"/></g>
</svg>